# WaveFront *.obj file (generated by Cheetah3D)

mtllib crate.mtl

g Box
v -0.500000 -0.500000 0.500000
v -0.500000 0.500000 0.500000
v 0.500000 0.500000 0.500000
v 0.500000 -0.500000 0.500000
v 0.500000 -0.500000 -0.500000
v 0.500000 0.500000 -0.500000
v -0.500000 0.500000 -0.500000
v -0.500000 -0.500000 -0.500000
v -0.420000 0.500000 0.500000
v -0.420000 0.500000 -0.500000
v -0.420000 -0.500000 0.500000
v -0.420000 -0.500000 -0.500000
v 0.389600 0.500000 0.500000
v 0.389600 0.500000 -0.500000
v 0.389600 -0.500000 0.500000
v 0.389600 -0.500000 -0.500000
v 0.500000 -0.500000 -0.390000
v 0.500000 0.500000 -0.390000
v 0.389600 -0.500000 -0.390000
v -0.420000 -0.500000 -0.390000
v -0.500000 -0.500000 -0.390000
v -0.500000 0.500000 -0.390000
v -0.420000 0.500000 -0.390000
v 0.389600 0.500000 -0.390000
v 0.389600 0.500000 0.391868
v 0.500000 0.500000 0.391868
v 0.500000 -0.500000 0.391868
v 0.389600 -0.500000 0.391868
v -0.420000 -0.500000 0.391868
v -0.500000 -0.500000 0.391868
v -0.500000 0.500000 0.391868
v -0.420000 0.500000 0.391868
v 0.500000 0.400000 -0.390000
v 0.500000 0.400000 -0.500000
v 0.500000 0.400000 0.391868
v 0.500000 0.400000 0.500000
v 0.389600 0.400000 0.500000
v -0.420000 0.400000 0.500000
v -0.500000 0.400000 0.500000
v -0.500000 0.400000 0.391868
v -0.500000 0.400000 -0.390000
v -0.500000 0.400000 -0.500000
v -0.420000 0.400000 -0.500000
v 0.389600 0.400000 -0.500000
v 0.500000 -0.410000 -0.390000
v 0.500000 -0.410000 -0.500000
v 0.500000 -0.410000 0.391868
v 0.500000 -0.410000 0.500000
v 0.389600 -0.410000 0.500000
v -0.420000 -0.410000 0.500000
v -0.500000 -0.410000 0.500000
v -0.500000 -0.410000 0.391868
v -0.500000 -0.410000 -0.390000
v -0.500000 -0.410000 -0.500000
v -0.420000 -0.410000 -0.500000
v 0.389600 -0.410000 -0.500000
v 0.389600 -0.464066 0.391868
v 0.389600 -0.464066 -0.390000
v -0.420000 -0.464066 -0.390000
v -0.420000 -0.464066 0.391868
v -0.420000 0.464066 0.391868
v -0.420000 0.464066 -0.390000
v 0.389600 0.464066 -0.390000
v 0.389600 0.464066 0.391868
v 0.464066 -0.410000 0.391868
v 0.464066 0.400000 0.391868
v 0.464066 0.400000 -0.390000
v 0.464066 -0.410000 -0.390000
v -0.420000 -0.410000 0.464066
v -0.420000 0.400000 0.464066
v 0.389600 0.400000 0.464066
v 0.389600 -0.410000 0.464066
v -0.464066 -0.410000 -0.390000
v -0.464066 0.400000 -0.390000
v -0.464066 0.400000 0.391868
v -0.464066 -0.410000 0.391868
v 0.389600 -0.410000 -0.464066
v 0.389600 0.400000 -0.464066
v -0.420000 0.400000 -0.464066
v -0.420000 -0.410000 -0.464066

vt 1.000000 0.890000
vt 1.000000 0.108132
vt 0.964066 0.108132
vt 0.889600 0.000000
vt 0.889600 0.090000
vt 1.000000 0.090000
vt 0.110400 0.090000
vt 0.110400 0.000000
vt 0.000000 0.000000
vt 0.000000 0.090000
vt 0.110000 0.090000
vt 0.110000 0.000000
vt 1.000000 0.000000
vt 0.890000 0.000000
vt 0.890000 0.090000
vt 0.889600 0.890000
vt 0.889600 1.000000
vt 1.000000 1.000000
vt 0.000000 0.890000
vt 0.000000 1.000000
vt 0.110400 1.000000
vt 0.110400 0.890000
vt 0.080000 1.000000
vt 0.080000 0.890000
vt 0.080000 0.090000
vt 0.080000 0.000000
vt 0.920000 0.890000
vt 0.920000 1.000000
vt 0.920000 0.000000
vt 0.920000 0.090000
vt 0.108132 0.000000
vt 0.108132 0.090000
vt 0.000000 0.108132
vt 0.110400 0.108132
vt 0.889600 0.964066
vt 0.080000 0.964066
vt 0.920000 0.108132
vt 0.891868 0.090000
vt 0.891868 0.000000
vt 0.080000 0.108132
vt 0.964066 0.090000
vt 0.964066 0.900000
vt 1.000000 0.900000
vt 0.889600 0.108132
vt 0.890000 0.900000
vt 0.890000 1.000000
vt 0.108132 0.900000
vt 0.108132 1.000000
vt 0.000000 0.900000
vt 0.889600 0.900000
vt 0.080000 0.900000
vt 0.891868 0.900000
vt 0.891868 1.000000
vt 0.110000 0.900000
vt 0.110000 1.000000
vt 0.920000 0.900000
vt 0.110400 0.900000
vt 0.920000 0.964066
vt 0.110400 0.964066
vt 0.035934 0.900000
vt 0.035934 0.090000
vt 0.035934 0.890000
vt 0.035934 0.108132
vt 0.110000 0.035934
vt 0.891868 0.035934
vt 0.080000 0.035934
vt 0.889600 0.035934
vt 0.108132 0.035934
vt 0.890000 0.035934
vt 0.110400 0.035934
vt 0.920000 0.035934
vt 0.890000 0.964066
vt 0.108132 0.964066
vt 0.891868 0.964066
vt 0.110000 0.964066
vt 0.964066 0.890000

vn 0.000000 -1.000000 0.000000
vn 0.000000 0.000000 1.000000
vn 0.000000 0.000000 -1.000000
vn -1.000000 0.000000 0.000000
vn 1.000000 0.000000 0.000000
vn 0.000000 1.000000 0.000000

usemtl Material
f 75/3/1 40/2/1 41/1/1
f 48/6/2 49/5/2 15/4/2
f 5/9/3 16/8/3 56/7/3
f 56/7/3 46/10/3 5/9/3
f 8/9/4 21/12/4 53/11/4
f 53/11/4 54/10/4 8/9/4
f 17/14/5 5/13/5 46/6/5
f 46/6/5 45/15/5 17/14/5
f 6/18/6 14/17/6 24/16/6
f 24/16/6 18/1/6 6/18/6
f 16/21/1 5/20/1 17/19/1
f 17/19/1 19/22/1 16/21/1
f 10/23/6 7/20/6 22/19/6
f 22/19/6 23/24/6 10/23/6
f 1/9/2 11/26/2 50/25/2
f 50/25/2 51/10/2 1/9/2
f 8/18/1 12/28/1 20/27/1
f 20/27/1 21/1/1 8/18/1
f 12/29/3 8/13/3 54/6/3
f 54/6/3 55/30/3 12/29/3
f 14/17/6 10/23/6 23/24/6
f 23/24/6 24/16/6 14/17/6
f 11/26/2 15/4/2 49/5/2
f 49/5/2 50/25/2 11/26/2
f 12/28/1 16/21/1 19/22/1
f 19/22/1 20/27/1 12/28/1
f 16/8/3 12/29/3 55/30/3
f 55/30/3 56/7/3 16/8/3
f 27/31/5 17/14/5 45/15/5
f 45/15/5 47/32/5 27/31/5
f 19/22/1 17/19/1 27/33/1
f 27/33/1 28/34/1 19/22/1
f 55/23/6 80/36/6 77/35/6
f 77/35/6 56/17/6 55/23/6
f 21/1/1 20/27/1 29/37/1
f 29/37/1 30/2/1 21/1/1
f 21/12/4 30/39/4 52/38/4
f 52/38/4 53/11/4 21/12/4
f 23/24/6 22/19/6 31/33/6
f 31/33/6 32/40/6 23/24/6
f 43/43/5 79/42/5 80/41/5
f 80/41/5 55/6/5 43/43/5
f 18/1/6 24/16/6 25/44/6
f 25/44/6 26/2/6 18/1/6
f 13/4/6 3/13/6 26/2/6
f 26/2/6 25/44/6 13/4/6
f 4/9/5 27/31/5 47/32/5
f 47/32/5 48/10/5 4/9/5
f 4/9/1 15/8/1 28/34/1
f 28/34/1 27/33/1 4/9/1
f 15/8/1 11/29/1 29/37/1
f 29/37/1 28/34/1 15/8/1
f 11/29/1 1/13/1 30/2/1
f 30/2/1 29/37/1 11/29/1
f 30/39/4 1/13/4 51/6/4
f 51/6/4 52/38/4 30/39/4
f 2/9/6 9/26/6 32/40/6
f 32/40/6 31/33/6 2/9/6
f 9/26/6 13/4/6 25/44/6
f 25/44/6 32/40/6 9/26/6
f 6/18/5 18/46/5 33/45/5
f 33/45/5 34/43/5 6/18/5
f 18/46/5 26/48/5 35/47/5
f 35/47/5 33/45/5 18/46/5
f 26/48/5 3/20/5 36/49/5
f 36/49/5 35/47/5 26/48/5
f 3/18/2 13/17/2 37/50/2
f 37/50/2 36/43/2 3/18/2
f 13/17/2 9/23/2 38/51/2
f 38/51/2 37/50/2 13/17/2
f 9/23/2 2/20/2 39/49/2
f 39/49/2 38/51/2 9/23/2
f 2/18/4 31/53/4 40/52/4
f 40/52/4 39/43/4 2/18/4
f 31/53/4 22/55/4 41/54/4
f 41/54/4 40/52/4 31/53/4
f 22/55/4 7/20/4 42/49/4
f 42/49/4 41/54/4 22/55/4
f 7/18/3 10/28/3 43/56/3
f 43/56/3 42/43/3 7/18/3
f 10/28/3 14/21/3 44/57/3
f 44/57/3 43/56/3 10/28/3
f 14/21/3 6/20/3 34/49/3
f 34/49/3 44/57/3 14/21/3
f 34/43/5 33/45/5 45/15/5
f 45/15/5 46/6/5 34/43/5
f 44/21/1 78/59/1 79/58/1
f 79/58/1 43/28/1 44/21/1
f 35/47/5 36/49/5 48/10/5
f 48/10/5 47/32/5 35/47/5
f 36/43/2 37/50/2 49/5/2
f 49/5/2 48/6/2 36/43/2
f 56/10/4 77/61/4 78/60/4
f 78/60/4 44/49/4 56/10/4
f 38/51/2 39/49/2 51/10/2
f 51/10/2 50/25/2 38/51/2
f 39/43/4 40/52/4 52/38/4
f 52/38/4 51/6/4 39/43/4
f 52/33/6 76/63/6 73/62/6
f 73/62/6 53/19/6 52/33/6
f 41/54/4 42/49/4 54/10/4
f 54/10/4 53/11/4 41/54/4
f 42/43/3 43/56/3 55/30/3
f 55/30/3 54/6/3 42/43/3
f 40/43/3 75/42/3 76/41/3
f 76/41/3 52/6/3 40/43/3
f 44/57/3 34/49/3 46/10/3
f 46/10/3 56/7/3 44/57/3
f 59/27/1 58/22/1 57/34/1
f 57/34/1 60/37/1 59/27/1
f 63/16/6 62/24/6 61/40/6
f 61/40/6 64/44/6 63/16/6
f 67/45/5 66/47/5 65/32/5
f 65/32/5 68/15/5 67/45/5
f 71/50/2 70/51/2 69/25/2
f 69/25/2 72/5/2 71/50/2
f 75/52/4 74/54/4 73/11/4
f 73/11/4 76/38/4 75/52/4
f 79/56/3 78/57/3 77/7/3
f 77/7/3 80/30/3 79/56/3
f 28/39/4 57/65/4 58/64/4
f 58/64/4 19/12/4 28/39/4
f 19/4/2 58/67/2 59/66/2
f 59/66/2 20/26/2 19/4/2
f 20/14/5 59/69/5 60/68/5
f 60/68/5 29/31/5 20/14/5
f 29/29/3 60/71/3 57/70/3
f 57/70/3 28/8/3 29/29/3
f 32/48/5 61/73/5 62/72/5
f 62/72/5 23/46/5 32/48/5
f 23/23/2 62/36/2 63/35/2
f 63/35/2 24/17/2 23/23/2
f 24/55/4 63/75/4 64/74/4
f 64/74/4 25/53/4 24/55/4
f 25/21/3 64/59/3 61/58/3
f 61/58/3 32/28/3 25/21/3
f 47/10/3 65/61/3 66/60/3
f 66/60/3 35/49/3 47/10/3
f 35/33/1 66/63/1 67/62/1
f 67/62/1 33/19/1 35/33/1
f 33/43/2 67/42/2 68/41/2
f 68/41/2 45/6/2 33/43/2
f 45/1/6 68/76/6 65/3/6
f 65/3/6 47/2/6 45/1/6
f 50/10/5 69/61/5 70/60/5
f 70/60/5 38/49/5 50/10/5
f 38/29/1 70/71/1 71/70/1
f 71/70/1 37/8/1 38/29/1
f 37/43/4 71/42/4 72/41/4
f 72/41/4 49/6/4 37/43/4
f 49/4/6 72/67/6 69/66/6
f 69/66/6 50/26/6 49/4/6
f 53/10/2 73/61/2 74/60/2
f 74/60/2 41/49/2 53/10/2
f 41/1/1 74/76/1 75/3/1
f 15/4/2 4/13/2 48/6/2

usemtl default

